<mxfile host="app.diagrams.net" agent="Mozilla/5.0 (Macintosh; Intel Mac OS X 10_15_7) AppleWebKit/537.36 (KHTML, like Gecko) Chrome/133.0.0.0 Safari/537.36" version="26.0.6">
  <diagram name="Page-1" id="f8_fzgUNLPYWbBof2NGn">
    <mxGraphModel dx="892" dy="522" grid="1" gridSize="10" guides="1" tooltips="1" connect="1" arrows="1" fold="1" page="1" pageScale="1" pageWidth="827" pageHeight="1169" math="0" shadow="0">
      <root>
        <mxCell id="0" />
        <mxCell id="1" parent="0" />
        <mxCell id="ntRKTNhlfIbFVnV_vPwr-76" value="" style="group;fillColor=#ffe6cc;strokeColor=#d79b00;" vertex="1" connectable="0" parent="1">
          <mxGeometry x="200" y="296.06" width="120" height="30" as="geometry" />
        </mxCell>
        <mxCell id="ntRKTNhlfIbFVnV_vPwr-77" value="4" style="rounded=0;whiteSpace=wrap;html=1;fillColor=#ffe6cc;strokeColor=#d79b00;" vertex="1" parent="ntRKTNhlfIbFVnV_vPwr-76">
          <mxGeometry x="90" width="30" height="30" as="geometry" />
        </mxCell>
        <mxCell id="ntRKTNhlfIbFVnV_vPwr-78" value="3" style="rounded=0;whiteSpace=wrap;html=1;fillColor=#ffe6cc;strokeColor=#d79b00;" vertex="1" parent="ntRKTNhlfIbFVnV_vPwr-76">
          <mxGeometry x="60" width="30" height="30" as="geometry" />
        </mxCell>
        <mxCell id="ntRKTNhlfIbFVnV_vPwr-79" value="2" style="rounded=0;whiteSpace=wrap;html=1;fillColor=#ffe6cc;strokeColor=#d79b00;" vertex="1" parent="ntRKTNhlfIbFVnV_vPwr-76">
          <mxGeometry x="30" width="30" height="30" as="geometry" />
        </mxCell>
        <mxCell id="ntRKTNhlfIbFVnV_vPwr-80" value="1" style="rounded=0;whiteSpace=wrap;html=1;fillColor=#ffe6cc;strokeColor=#d79b00;" vertex="1" parent="ntRKTNhlfIbFVnV_vPwr-76">
          <mxGeometry width="30" height="30" as="geometry" />
        </mxCell>
        <mxCell id="ntRKTNhlfIbFVnV_vPwr-136" style="edgeStyle=orthogonalEdgeStyle;rounded=0;orthogonalLoop=1;jettySize=auto;html=1;exitX=0.5;exitY=0;exitDx=0;exitDy=0;exitPerimeter=0;entryX=0.5;entryY=1;entryDx=0;entryDy=0;" edge="1" parent="1" source="ntRKTNhlfIbFVnV_vPwr-82" target="ntRKTNhlfIbFVnV_vPwr-85">
          <mxGeometry relative="1" as="geometry">
            <Array as="points">
              <mxPoint x="305" y="200" />
              <mxPoint x="395" y="200" />
            </Array>
          </mxGeometry>
        </mxCell>
        <mxCell id="ntRKTNhlfIbFVnV_vPwr-82" value="" style="verticalLabelPosition=bottom;shadow=0;dashed=0;align=center;html=1;verticalAlign=top;shape=mxgraph.electrical.abstract.sum;" vertex="1" parent="1">
          <mxGeometry x="280" y="216.06" width="50" height="50" as="geometry" />
        </mxCell>
        <mxCell id="ntRKTNhlfIbFVnV_vPwr-83" value="" style="group;fillColor=#dae8fc;strokeColor=#6c8ebf;" vertex="1" connectable="0" parent="1">
          <mxGeometry x="200" y="156.06" width="210" height="30" as="geometry" />
        </mxCell>
        <mxCell id="ntRKTNhlfIbFVnV_vPwr-84" value="5" style="rounded=0;whiteSpace=wrap;html=1;fillColor=#dae8fc;strokeColor=#6c8ebf;" vertex="1" parent="ntRKTNhlfIbFVnV_vPwr-83">
          <mxGeometry width="30" height="30" as="geometry" />
        </mxCell>
        <mxCell id="ntRKTNhlfIbFVnV_vPwr-85" value="32" style="rounded=0;whiteSpace=wrap;html=1;fillColor=#dae8fc;strokeColor=#6c8ebf;" vertex="1" parent="ntRKTNhlfIbFVnV_vPwr-83">
          <mxGeometry x="180" width="30" height="30" as="geometry" />
        </mxCell>
        <mxCell id="ntRKTNhlfIbFVnV_vPwr-86" value="52" style="rounded=0;whiteSpace=wrap;html=1;fillColor=#dae8fc;strokeColor=#6c8ebf;" vertex="1" parent="ntRKTNhlfIbFVnV_vPwr-83">
          <mxGeometry x="150" width="30" height="30" as="geometry" />
        </mxCell>
        <mxCell id="ntRKTNhlfIbFVnV_vPwr-87" value="61" style="rounded=0;whiteSpace=wrap;html=1;fillColor=#dae8fc;strokeColor=#6c8ebf;" vertex="1" parent="ntRKTNhlfIbFVnV_vPwr-83">
          <mxGeometry x="120" width="30" height="30" as="geometry" />
        </mxCell>
        <mxCell id="ntRKTNhlfIbFVnV_vPwr-88" value="60" style="rounded=0;whiteSpace=wrap;html=1;fillColor=#dae8fc;strokeColor=#6c8ebf;" vertex="1" parent="ntRKTNhlfIbFVnV_vPwr-83">
          <mxGeometry x="90" width="30" height="30" as="geometry" />
        </mxCell>
        <mxCell id="ntRKTNhlfIbFVnV_vPwr-89" value="34" style="rounded=0;whiteSpace=wrap;html=1;fillColor=#dae8fc;strokeColor=#6c8ebf;" vertex="1" parent="ntRKTNhlfIbFVnV_vPwr-83">
          <mxGeometry x="60" width="30" height="30" as="geometry" />
        </mxCell>
        <mxCell id="ntRKTNhlfIbFVnV_vPwr-90" value="16" style="rounded=0;whiteSpace=wrap;html=1;fillColor=#dae8fc;strokeColor=#6c8ebf;" vertex="1" parent="ntRKTNhlfIbFVnV_vPwr-83">
          <mxGeometry x="30" width="30" height="30" as="geometry" />
        </mxCell>
        <mxCell id="ntRKTNhlfIbFVnV_vPwr-99" style="edgeStyle=orthogonalEdgeStyle;rounded=0;orthogonalLoop=1;jettySize=auto;html=1;entryX=0.5;entryY=1;entryDx=0;entryDy=0;entryPerimeter=0;" edge="1" parent="1" source="ntRKTNhlfIbFVnV_vPwr-77" target="ntRKTNhlfIbFVnV_vPwr-82">
          <mxGeometry relative="1" as="geometry" />
        </mxCell>
        <mxCell id="ntRKTNhlfIbFVnV_vPwr-100" style="edgeStyle=orthogonalEdgeStyle;rounded=0;orthogonalLoop=1;jettySize=auto;html=1;entryX=0.289;entryY=0.957;entryDx=0;entryDy=0;entryPerimeter=0;" edge="1" parent="1" source="ntRKTNhlfIbFVnV_vPwr-78" target="ntRKTNhlfIbFVnV_vPwr-82">
          <mxGeometry relative="1" as="geometry" />
        </mxCell>
        <mxCell id="ntRKTNhlfIbFVnV_vPwr-101" style="edgeStyle=orthogonalEdgeStyle;rounded=0;orthogonalLoop=1;jettySize=auto;html=1;" edge="1" parent="1" target="ntRKTNhlfIbFVnV_vPwr-82">
          <mxGeometry relative="1" as="geometry">
            <mxPoint x="250.17999999999995" y="296.06" as="sourcePoint" />
            <mxPoint x="269.8299999999999" y="252.81" as="targetPoint" />
            <Array as="points">
              <mxPoint x="250" y="253.06" />
            </Array>
          </mxGeometry>
        </mxCell>
        <mxCell id="ntRKTNhlfIbFVnV_vPwr-102" style="edgeStyle=orthogonalEdgeStyle;rounded=0;orthogonalLoop=1;jettySize=auto;html=1;entryX=0.001;entryY=0.45;entryDx=0;entryDy=0;entryPerimeter=0;" edge="1" parent="1" source="ntRKTNhlfIbFVnV_vPwr-80" target="ntRKTNhlfIbFVnV_vPwr-82">
          <mxGeometry relative="1" as="geometry">
            <mxPoint x="215" y="236.06" as="targetPoint" />
            <Array as="points">
              <mxPoint x="215" y="239.06" />
            </Array>
          </mxGeometry>
        </mxCell>
        <mxCell id="ntRKTNhlfIbFVnV_vPwr-113" style="edgeStyle=orthogonalEdgeStyle;rounded=0;orthogonalLoop=1;jettySize=auto;html=1;entryX=0.5;entryY=1;entryDx=0;entryDy=0;" edge="1" parent="1" source="ntRKTNhlfIbFVnV_vPwr-111" target="ntRKTNhlfIbFVnV_vPwr-80">
          <mxGeometry relative="1" as="geometry" />
        </mxCell>
        <mxCell id="ntRKTNhlfIbFVnV_vPwr-111" value="" style="shape=sumEllipse;perimeter=ellipsePerimeter;whiteSpace=wrap;html=1;backgroundOutline=1;" vertex="1" parent="1">
          <mxGeometry x="207.5" y="346.06" width="15" height="15" as="geometry" />
        </mxCell>
        <mxCell id="ntRKTNhlfIbFVnV_vPwr-114" style="edgeStyle=orthogonalEdgeStyle;rounded=0;orthogonalLoop=1;jettySize=auto;html=1;entryX=0.5;entryY=1;entryDx=0;entryDy=0;" edge="1" parent="1" source="ntRKTNhlfIbFVnV_vPwr-73" target="ntRKTNhlfIbFVnV_vPwr-111">
          <mxGeometry relative="1" as="geometry" />
        </mxCell>
        <mxCell id="ntRKTNhlfIbFVnV_vPwr-119" style="edgeStyle=orthogonalEdgeStyle;rounded=0;orthogonalLoop=1;jettySize=auto;html=1;exitX=0.5;exitY=0;exitDx=0;exitDy=0;entryX=0.5;entryY=1;entryDx=0;entryDy=0;" edge="1" parent="1" source="ntRKTNhlfIbFVnV_vPwr-115" target="ntRKTNhlfIbFVnV_vPwr-79">
          <mxGeometry relative="1" as="geometry" />
        </mxCell>
        <mxCell id="ntRKTNhlfIbFVnV_vPwr-115" value="" style="shape=sumEllipse;perimeter=ellipsePerimeter;whiteSpace=wrap;html=1;backgroundOutline=1;" vertex="1" parent="1">
          <mxGeometry x="237.5" y="346.06" width="15" height="15" as="geometry" />
        </mxCell>
        <mxCell id="ntRKTNhlfIbFVnV_vPwr-117" style="edgeStyle=orthogonalEdgeStyle;rounded=0;orthogonalLoop=1;jettySize=auto;html=1;entryX=0.5;entryY=1;entryDx=0;entryDy=0;" edge="1" parent="1" source="ntRKTNhlfIbFVnV_vPwr-72" target="ntRKTNhlfIbFVnV_vPwr-115">
          <mxGeometry relative="1" as="geometry" />
        </mxCell>
        <mxCell id="ntRKTNhlfIbFVnV_vPwr-127" style="edgeStyle=orthogonalEdgeStyle;rounded=0;orthogonalLoop=1;jettySize=auto;html=1;exitX=0.5;exitY=0;exitDx=0;exitDy=0;entryX=0.5;entryY=1;entryDx=0;entryDy=0;" edge="1" parent="1" source="ntRKTNhlfIbFVnV_vPwr-120" target="ntRKTNhlfIbFVnV_vPwr-77">
          <mxGeometry relative="1" as="geometry" />
        </mxCell>
        <mxCell id="ntRKTNhlfIbFVnV_vPwr-120" value="" style="shape=sumEllipse;perimeter=ellipsePerimeter;whiteSpace=wrap;html=1;backgroundOutline=1;" vertex="1" parent="1">
          <mxGeometry x="297.5" y="346.06" width="15" height="15" as="geometry" />
        </mxCell>
        <mxCell id="ntRKTNhlfIbFVnV_vPwr-125" style="edgeStyle=orthogonalEdgeStyle;rounded=0;orthogonalLoop=1;jettySize=auto;html=1;exitX=0.5;exitY=0;exitDx=0;exitDy=0;entryX=0.5;entryY=1;entryDx=0;entryDy=0;" edge="1" parent="1" source="ntRKTNhlfIbFVnV_vPwr-121" target="ntRKTNhlfIbFVnV_vPwr-78">
          <mxGeometry relative="1" as="geometry" />
        </mxCell>
        <mxCell id="ntRKTNhlfIbFVnV_vPwr-121" value="" style="shape=sumEllipse;perimeter=ellipsePerimeter;whiteSpace=wrap;html=1;backgroundOutline=1;" vertex="1" parent="1">
          <mxGeometry x="267.5" y="346.06" width="15" height="15" as="geometry" />
        </mxCell>
        <mxCell id="ntRKTNhlfIbFVnV_vPwr-126" style="edgeStyle=orthogonalEdgeStyle;rounded=0;orthogonalLoop=1;jettySize=auto;html=1;entryX=0.5;entryY=1;entryDx=0;entryDy=0;" edge="1" parent="1" source="ntRKTNhlfIbFVnV_vPwr-71" target="ntRKTNhlfIbFVnV_vPwr-121">
          <mxGeometry relative="1" as="geometry" />
        </mxCell>
        <mxCell id="ntRKTNhlfIbFVnV_vPwr-128" style="edgeStyle=orthogonalEdgeStyle;rounded=0;orthogonalLoop=1;jettySize=auto;html=1;exitX=0.5;exitY=0;exitDx=0;exitDy=0;entryX=0.5;entryY=1;entryDx=0;entryDy=0;" edge="1" parent="1" source="ntRKTNhlfIbFVnV_vPwr-70" target="ntRKTNhlfIbFVnV_vPwr-120">
          <mxGeometry relative="1" as="geometry" />
        </mxCell>
        <mxCell id="ntRKTNhlfIbFVnV_vPwr-129" value="" style="shape=curlyBracket;whiteSpace=wrap;html=1;rounded=1;flipH=1;labelPosition=right;verticalLabelPosition=middle;align=left;verticalAlign=middle;size=0.25;" vertex="1" parent="1">
          <mxGeometry x="414" y="284.31" width="40" height="138.5" as="geometry" />
        </mxCell>
        <mxCell id="ntRKTNhlfIbFVnV_vPwr-130" value="" style="shape=curlyBracket;whiteSpace=wrap;html=1;rounded=1;flipH=1;labelPosition=right;verticalLabelPosition=middle;align=left;verticalAlign=middle;size=0.25;" vertex="1" parent="1">
          <mxGeometry x="350" y="216.06" width="30" height="62.13" as="geometry" />
        </mxCell>
        <mxCell id="ntRKTNhlfIbFVnV_vPwr-131" value="Padded zeros allow the loop&lt;div&gt;to convolve the final elements&amp;nbsp;&lt;/div&gt;&lt;div&gt;with no further logic.&amp;nbsp;&lt;/div&gt;" style="text;html=1;align=center;verticalAlign=middle;resizable=0;points=[];autosize=1;strokeColor=none;fillColor=none;" vertex="1" parent="1">
          <mxGeometry x="455" y="323.56" width="180" height="60" as="geometry" />
        </mxCell>
        <mxCell id="ntRKTNhlfIbFVnV_vPwr-132" value="All Values in the inner for loop are&amp;nbsp;&lt;div&gt;summed.&amp;nbsp;&lt;/div&gt;" style="text;html=1;align=center;verticalAlign=middle;resizable=0;points=[];autosize=1;strokeColor=none;fillColor=none;" vertex="1" parent="1">
          <mxGeometry x="380" y="227.13" width="210" height="40" as="geometry" />
        </mxCell>
        <mxCell id="ntRKTNhlfIbFVnV_vPwr-133" value="" style="shape=curlyBracket;whiteSpace=wrap;html=1;rounded=1;flipH=1;labelPosition=right;verticalLabelPosition=middle;align=left;verticalAlign=middle;size=0.25;" vertex="1" parent="1">
          <mxGeometry x="420" y="140" width="30" height="62.13" as="geometry" />
        </mxCell>
        <mxCell id="ntRKTNhlfIbFVnV_vPwr-134" value="The outer for loop sets the index n&lt;div&gt;&lt;/div&gt;&lt;div&gt;and the sum of the products is assigned&lt;/div&gt;&lt;div&gt;to this index.&lt;/div&gt;" style="text;html=1;align=center;verticalAlign=middle;resizable=0;points=[];autosize=1;strokeColor=none;fillColor=none;" vertex="1" parent="1">
          <mxGeometry x="440" y="142.13" width="240" height="60" as="geometry" />
        </mxCell>
        <mxCell id="ntRKTNhlfIbFVnV_vPwr-135" value="" style="group" vertex="1" connectable="0" parent="1">
          <mxGeometry x="200" y="386.06" width="210" height="30" as="geometry" />
        </mxCell>
        <mxCell id="ntRKTNhlfIbFVnV_vPwr-69" value="5" style="rounded=0;whiteSpace=wrap;html=1;fillColor=#e1d5e7;strokeColor=#9673a6;container=0;" vertex="1" parent="ntRKTNhlfIbFVnV_vPwr-135">
          <mxGeometry x="180" width="30" height="30" as="geometry" />
        </mxCell>
        <mxCell id="ntRKTNhlfIbFVnV_vPwr-70" value="8" style="rounded=0;whiteSpace=wrap;html=1;fillColor=#e1d5e7;strokeColor=#9673a6;container=0;" vertex="1" parent="ntRKTNhlfIbFVnV_vPwr-135">
          <mxGeometry x="90" width="30" height="30" as="geometry" />
        </mxCell>
        <mxCell id="ntRKTNhlfIbFVnV_vPwr-71" value="0" style="rounded=0;whiteSpace=wrap;html=1;fillColor=#e1d5e7;strokeColor=#9673a6;container=0;" vertex="1" parent="ntRKTNhlfIbFVnV_vPwr-135">
          <mxGeometry x="60" width="30" height="30" as="geometry" />
        </mxCell>
        <mxCell id="ntRKTNhlfIbFVnV_vPwr-72" value="0" style="rounded=0;whiteSpace=wrap;html=1;fillColor=#e1d5e7;strokeColor=#9673a6;container=0;" vertex="1" parent="ntRKTNhlfIbFVnV_vPwr-135">
          <mxGeometry x="30" width="30" height="30" as="geometry" />
        </mxCell>
        <mxCell id="ntRKTNhlfIbFVnV_vPwr-73" value="0" style="rounded=0;whiteSpace=wrap;html=1;fillColor=#e1d5e7;strokeColor=#9673a6;container=0;" vertex="1" parent="ntRKTNhlfIbFVnV_vPwr-135">
          <mxGeometry width="30" height="30" as="geometry" />
        </mxCell>
        <mxCell id="ntRKTNhlfIbFVnV_vPwr-74" value="7" style="rounded=0;whiteSpace=wrap;html=1;fillColor=#e1d5e7;strokeColor=#9673a6;container=0;" vertex="1" parent="ntRKTNhlfIbFVnV_vPwr-135">
          <mxGeometry x="120" width="30" height="30" as="geometry" />
        </mxCell>
        <mxCell id="ntRKTNhlfIbFVnV_vPwr-75" value="6" style="rounded=0;whiteSpace=wrap;html=1;fillColor=#e1d5e7;strokeColor=#9673a6;container=0;" vertex="1" parent="ntRKTNhlfIbFVnV_vPwr-135">
          <mxGeometry x="150" width="30" height="30" as="geometry" />
        </mxCell>
      </root>
    </mxGraphModel>
  </diagram>
</mxfile>
